Normalized EMG Linear Envelopes
nRows=65
nColumns=17

endheader
time	        VM	        VL	        RF	       GRA	        TA	   ADDLONG	   SEMIMEM	      BFLH	        GM	        GL	       TFL	   GLUTMAX	   GLUTMED	      PIRI	    OBTINT	        QF	
2.2675	  0.080263	  0.071247	  0.390887	  0.492168	  0.524412	  0.185327	  0.161669	  0.153466	  0.044278	  0.086221	  0.478353	  0.045757	  0.073619	  0.231222	  0.612105	  0.048214	
2.268	  0.080295	  0.071381	  0.392513	  0.490685	  0.523713	  0.183384	  0.160845	  0.152742	  0.043346	  0.084917	  0.477684	  0.046223	  0.074429	  0.231436	  0.613691	  0.048354	
2.2685	  0.080319	  0.071513	  0.394135	  0.489204	  0.522993	  0.181474	  0.160014	  0.152010	  0.042435	  0.083631	  0.476992	  0.046691	  0.075245	  0.231665	  0.615126	  0.048500	
2.269	  0.080334	  0.071642	  0.395752	  0.487722	  0.522253	  0.179595	  0.159175	  0.151272	  0.041546	  0.082364	  0.476280	  0.047162	  0.076068	  0.231911	  0.616407	  0.048652	
2.2695	  0.080339	  0.071770	  0.397366	  0.486239	  0.521493	  0.177748	  0.158330	  0.150527	  0.040678	  0.081116	  0.475549	  0.047637	  0.076897	  0.232173	  0.617534	  0.048810	
2.27	  0.080336	  0.071896	  0.398976	  0.484752	  0.520716	  0.175934	  0.157479	  0.149776	  0.039832	  0.079886	  0.474800	  0.048113	  0.077732	  0.232453	  0.618505	  0.048974	
2.2705	  0.080324	  0.072019	  0.400582	  0.483260	  0.519920	  0.174152	  0.156622	  0.149021	  0.039005	  0.078676	  0.474034	  0.048593	  0.078574	  0.232751	  0.619322	  0.049144	
2.271	  0.080303	  0.072140	  0.402184	  0.481761	  0.519108	  0.172402	  0.155761	  0.148261	  0.038200	  0.077484	  0.473251	  0.049075	  0.079422	  0.233068	  0.619983	  0.049320	
2.2715	  0.080273	  0.072260	  0.403783	  0.480255	  0.518279	  0.170685	  0.154895	  0.147497	  0.037413	  0.076311	  0.472453	  0.049559	  0.080275	  0.233403	  0.620488	  0.049502	
2.272	  0.080233	  0.072377	  0.405378	  0.478740	  0.517433	  0.169000	  0.154025	  0.146730	  0.036647	  0.075157	  0.471641	  0.050046	  0.081134	  0.233759	  0.620839	  0.049690	
2.2725	  0.080185	  0.072492	  0.406970	  0.477215	  0.516572	  0.167348	  0.153151	  0.145959	  0.035900	  0.074022	  0.470814	  0.050535	  0.081998	  0.234134	  0.621035	  0.049884	
2.273	  0.080128	  0.072605	  0.408557	  0.475678	  0.515695	  0.165728	  0.152274	  0.145186	  0.035172	  0.072906	  0.469973	  0.051027	  0.082868	  0.234530	  0.621080	  0.050084	
2.2735	  0.080062	  0.072715	  0.410140	  0.474128	  0.514802	  0.164140	  0.151393	  0.144411	  0.034462	  0.071808	  0.469120	  0.051522	  0.083742	  0.234947	  0.620975	  0.050290	
2.274	  0.079987	  0.072823	  0.411719	  0.472567	  0.513894	  0.162585	  0.150510	  0.143634	  0.033771	  0.070729	  0.468253	  0.052018	  0.084621	  0.235384	  0.620722	  0.050501	
2.2745	  0.079904	  0.072929	  0.413293	  0.470992	  0.512970	  0.161063	  0.149625	  0.142856	  0.033098	  0.069669	  0.467373	  0.052517	  0.085505	  0.235843	  0.620325	  0.050719	
2.275	  0.079812	  0.073032	  0.414862	  0.469405	  0.512030	  0.159572	  0.148738	  0.142077	  0.032443	  0.068626	  0.466481	  0.053018	  0.086394	  0.236323	  0.619787	  0.050942	
2.2755	  0.079710	  0.073133	  0.416425	  0.467806	  0.511075	  0.158114	  0.147848	  0.141296	  0.031805	  0.067603	  0.465577	  0.053521	  0.087286	  0.236824	  0.619113	  0.051171	
2.276	  0.079601	  0.073231	  0.417983	  0.466195	  0.510103	  0.156687	  0.146957	  0.140516	  0.031184	  0.066597	  0.464662	  0.054027	  0.088184	  0.237348	  0.618305	  0.051405	
2.2765	  0.079482	  0.073326	  0.419534	  0.464572	  0.509115	  0.155292	  0.146063	  0.139735	  0.030581	  0.065609	  0.463735	  0.054535	  0.089085	  0.237893	  0.617367	  0.051645	
2.277	  0.079355	  0.073419	  0.421078	  0.462939	  0.508111	  0.153928	  0.145169	  0.138955	  0.029994	  0.064639	  0.462797	  0.055045	  0.089991	  0.238461	  0.616304	  0.051891	
2.2775	  0.079220	  0.073509	  0.422615	  0.461295	  0.507089	  0.152595	  0.144273	  0.138175	  0.029424	  0.063687	  0.461849	  0.055558	  0.090902	  0.239052	  0.615119	  0.052142	
2.278	  0.079076	  0.073596	  0.424144	  0.459640	  0.506051	  0.151293	  0.143375	  0.137396	  0.028869	  0.062753	  0.460890	  0.056073	  0.091817	  0.239665	  0.613816	  0.052399	
2.2785	  0.078924	  0.073681	  0.425663	  0.457976	  0.504994	  0.150020	  0.142476	  0.136619	  0.028331	  0.061835	  0.459922	  0.056590	  0.092736	  0.240301	  0.612398	  0.052661	
2.279	  0.078765	  0.073763	  0.427172	  0.456301	  0.503919	  0.148778	  0.141576	  0.135843	  0.027809	  0.060935	  0.458943	  0.057109	  0.093659	  0.240959	  0.610871	  0.052929	
2.2795	  0.078597	  0.073842	  0.428670	  0.454618	  0.502825	  0.147564	  0.140674	  0.135069	  0.027302	  0.060052	  0.457956	  0.057631	  0.094587	  0.241641	  0.609237	  0.053202	
2.28	  0.078422	  0.073918	  0.430157	  0.452925	  0.501713	  0.146379	  0.139771	  0.134298	  0.026811	  0.059186	  0.456960	  0.058155	  0.095520	  0.242346	  0.607502	  0.053480	
2.2805	  0.078240	  0.073992	  0.431631	  0.451224	  0.500583	  0.145222	  0.138866	  0.133529	  0.026335	  0.058337	  0.455955	  0.058681	  0.096457	  0.243073	  0.605670	  0.053763	
2.281	  0.078051	  0.074062	  0.433093	  0.449516	  0.499436	  0.144092	  0.137961	  0.132762	  0.025875	  0.057504	  0.454941	  0.059210	  0.097398	  0.243824	  0.603745	  0.054052	
2.2815	  0.077855	  0.074130	  0.434540	  0.447800	  0.498270	  0.142989	  0.137054	  0.131999	  0.025429	  0.056687	  0.453920	  0.059740	  0.098343	  0.244597	  0.601731	  0.054346	
2.282	  0.077652	  0.074195	  0.435973	  0.446078	  0.497088	  0.141913	  0.136147	  0.131238	  0.024998	  0.055887	  0.452890	  0.060272	  0.099292	  0.245393	  0.599635	  0.054644	
2.2825	  0.077443	  0.074257	  0.437391	  0.444348	  0.495889	  0.140862	  0.135239	  0.130481	  0.024581	  0.055102	  0.451852	  0.060806	  0.100245	  0.246212	  0.597460	  0.054948	
2.283	  0.077229	  0.074316	  0.438794	  0.442612	  0.494674	  0.139835	  0.134331	  0.129727	  0.024179	  0.054333	  0.450807	  0.061341	  0.101201	  0.247052	  0.595212	  0.055256	
2.2835	  0.077008	  0.074372	  0.440180	  0.440870	  0.493443	  0.138833	  0.133422	  0.128977	  0.023791	  0.053580	  0.449753	  0.061879	  0.102162	  0.247915	  0.592896	  0.055569	
2.284	  0.076781	  0.074424	  0.441550	  0.439121	  0.492195	  0.137853	  0.132513	  0.128231	  0.023417	  0.052842	  0.448691	  0.062417	  0.103125	  0.248799	  0.590516	  0.055887	
2.2845	  0.076550	  0.074473	  0.442903	  0.437365	  0.490932	  0.136897	  0.131605	  0.127489	  0.023056	  0.052119	  0.447621	  0.062957	  0.104092	  0.249705	  0.588079	  0.056209	
2.285	  0.076312	  0.074518	  0.444239	  0.435602	  0.489653	  0.135962	  0.130697	  0.126751	  0.022710	  0.051410	  0.446542	  0.063498	  0.105061	  0.250631	  0.585588	  0.056535	
2.2855	  0.076070	  0.074561	  0.445555	  0.433832	  0.488358	  0.135047	  0.129790	  0.126018	  0.022376	  0.050717	  0.445453	  0.064040	  0.106033	  0.251577	  0.583050	  0.056867	
2.286	  0.075823	  0.074599	  0.446852	  0.432053	  0.487047	  0.134153	  0.128884	  0.125288	  0.022056	  0.050037	  0.444355	  0.064582	  0.107007	  0.252544	  0.580468	  0.057202	
2.2865	  0.075570	  0.074634	  0.448129	  0.430266	  0.485720	  0.133279	  0.127979	  0.124563	  0.021749	  0.049372	  0.443246	  0.065126	  0.107983	  0.253529	  0.577849	  0.057542	
2.287	  0.075314	  0.074664	  0.449384	  0.428470	  0.484376	  0.132423	  0.127075	  0.123842	  0.021455	  0.048720	  0.442127	  0.065669	  0.108960	  0.254533	  0.575197	  0.057886	
2.2875	  0.075052	  0.074691	  0.450616	  0.426664	  0.483016	  0.131584	  0.126172	  0.123126	  0.021173	  0.048082	  0.440997	  0.066213	  0.109939	  0.255555	  0.572515	  0.058234	
2.288	  0.074786	  0.074713	  0.451824	  0.424848	  0.481639	  0.130763	  0.125271	  0.122414	  0.020904	  0.047457	  0.439857	  0.066757	  0.110918	  0.256595	  0.569810	  0.058587	
2.2885	  0.074516	  0.074732	  0.453007	  0.423021	  0.480247	  0.129958	  0.124372	  0.121708	  0.020647	  0.046845	  0.438706	  0.067301	  0.111898	  0.257651	  0.567084	  0.058944	
2.289	  0.074241	  0.074745	  0.454163	  0.421183	  0.478838	  0.129168	  0.123475	  0.121006	  0.020402	  0.046246	  0.437544	  0.067844	  0.112878	  0.258724	  0.564343	  0.059304	
2.2895	  0.073962	  0.074754	  0.455292	  0.419333	  0.477414	  0.128392	  0.122580	  0.120309	  0.020169	  0.045658	  0.436373	  0.068387	  0.113858	  0.259813	  0.561590	  0.059669	
2.29	  0.073679	  0.074757	  0.456392	  0.417469	  0.475975	  0.127630	  0.121687	  0.119617	  0.019948	  0.045083	  0.435192	  0.068928	  0.114836	  0.260918	  0.558829	  0.060037	
2.2905	  0.073392	  0.074756	  0.457462	  0.415592	  0.474521	  0.126880	  0.120797	  0.118930	  0.019739	  0.044519	  0.434002	  0.069469	  0.115814	  0.262038	  0.556064	  0.060409	
2.291	  0.073102	  0.074749	  0.458500	  0.413700	  0.473052	  0.126143	  0.119910	  0.118247	  0.019540	  0.043966	  0.432804	  0.070008	  0.116790	  0.263173	  0.553300	  0.060784	
2.2915	  0.072807	  0.074736	  0.459506	  0.411792	  0.471569	  0.125416	  0.119026	  0.117570	  0.019353	  0.043425	  0.431598	  0.070546	  0.117765	  0.264322	  0.550540	  0.061162	
2.292	  0.072509	  0.074717	  0.460478	  0.409867	  0.470072	  0.124699	  0.118145	  0.116898	  0.019177	  0.042893	  0.430385	  0.071081	  0.118737	  0.265486	  0.547787	  0.061543	
2.2925	  0.072208	  0.074692	  0.461414	  0.407924	  0.468563	  0.123991	  0.117266	  0.116231	  0.019011	  0.042372	  0.429165	  0.071614	  0.119707	  0.266663	  0.545046	  0.061928	
2.293	  0.071904	  0.074660	  0.462314	  0.405963	  0.467041	  0.123292	  0.116392	  0.115568	  0.018856	  0.041861	  0.427939	  0.072145	  0.120673	  0.267854	  0.542320	  0.062315	
2.2935	  0.071596	  0.074623	  0.463176	  0.403982	  0.465507	  0.122601	  0.115520	  0.114910	  0.018711	  0.041360	  0.426707	  0.072672	  0.121636	  0.269058	  0.539613	  0.062704	
2.294	  0.071286	  0.074578	  0.463998	  0.401980	  0.463962	  0.121917	  0.114652	  0.114256	  0.018577	  0.040868	  0.425471	  0.073196	  0.122595	  0.270274	  0.536928	  0.063096	
2.2945	  0.070973	  0.074527	  0.464781	  0.399955	  0.462407	  0.121239	  0.113787	  0.113607	  0.018452	  0.040385	  0.424230	  0.073717	  0.123550	  0.271503	  0.534268	  0.063490	
2.295	  0.070657	  0.074468	  0.465522	  0.397907	  0.460842	  0.120566	  0.112925	  0.112963	  0.018337	  0.039911	  0.422985	  0.074233	  0.124499	  0.272744	  0.531638	  0.063886	
2.2955	  0.070339	  0.074403	  0.466220	  0.395835	  0.459267	  0.119899	  0.112067	  0.112322	  0.018231	  0.039445	  0.421737	  0.074744	  0.125442	  0.273996	  0.529040	  0.064283	
2.296	  0.070018	  0.074331	  0.466874	  0.393738	  0.457684	  0.119236	  0.111212	  0.111685	  0.018135	  0.038988	  0.420486	  0.075251	  0.126379	  0.275258	  0.526477	  0.064683	
2.2965	  0.069695	  0.074251	  0.467483	  0.391615	  0.456092	  0.118577	  0.110360	  0.111051	  0.018047	  0.038539	  0.419232	  0.075752	  0.127309	  0.276531	  0.523952	  0.065085	
2.297	  0.069369	  0.074164	  0.468045	  0.389465	  0.454492	  0.117922	  0.109512	  0.110421	  0.017969	  0.038098	  0.417975	  0.076247	  0.128231	  0.277813	  0.521469	  0.065488	
2.2975	  0.069042	  0.074069	  0.468560	  0.387288	  0.452884	  0.117270	  0.108667	  0.109794	  0.017899	  0.037665	  0.416717	  0.076736	  0.129145	  0.279103	  0.519030	  0.065893	
2.298	  0.068712	  0.073966	  0.469024	  0.385083	  0.451269	  0.116620	  0.107825	  0.109169	  0.017838	  0.037239	  0.415457	  0.077218	  0.130050	  0.280400	  0.516639	  0.066299	
2.2985	  0.068380	  0.073856	  0.469439	  0.382850	  0.449646	  0.115973	  0.106985	  0.108547	  0.017784	  0.036820	  0.414194	  0.077693	  0.130944	  0.281705	  0.514297	  0.066707	
2.299	  0.068046	  0.073738	  0.469801	  0.380588	  0.448015	  0.115328	  0.106149	  0.107927	  0.017739	  0.036409	  0.412930	  0.078160	  0.131828	  0.283015	  0.512007	  0.067116	
2.2995	  0.067711	  0.073612	  0.470111	  0.378296	  0.446377	  0.114683	  0.105315	  0.107309	  0.017702	  0.036004	  0.411664	  0.078619	  0.132701	  0.284330	  0.509773	  0.067526	
